<svg xmlns="http://www.w3.org/2000/svg" width="680" height="360" viewBox="0 0 680 360">
<rect width="680" height="360" rx="12" fill="#0e0f14"/>
<rect x="0" y="0" width="680" height="48" fill="#16181f"/>
<rect x="0" y="48" width="680" height="0.5" fill="#2a2d38"/>
<circle cx="20" cy="24" r="5" fill="#7c6af7"/>
<text x="30" y="29" font-family="monospace" font-size="13" font-weight="600" fill="#e8eaf0">Projekt-Timeline</text>
<rect x="190" y="14" width="80" height="20" rx="10" fill="#7c6af722"/>
<text x="230" y="29" font-family="monospace" font-size="9" fill="#7c6af7" text-anchor="middle">Installation</text>
<circle cx="100" cy="82" r="14" fill="#34d399"/>
<text x="100" y="87" font-family="monospace" font-size="11" fill="#fff" text-anchor="middle">OK</text>
<text x="100" y="108" font-family="monospace" font-size="9" fill="#34d399" text-anchor="middle">Willkommen</text>
<rect x="114" y="81" width="90" height="2" fill="#34d399"/>
<circle cx="218" cy="82" r="14" fill="#7c6af7"/>
<text x="218" y="87" font-family="monospace" font-size="11" fill="#fff" text-anchor="middle">2</text>
<text x="218" y="108" font-family="monospace" font-size="9" fill="#7c6af7" text-anchor="middle">Datenbank</text>
<rect x="232" y="81" width="90" height="2" fill="#2a2d38"/>
<circle cx="336" cy="82" r="14" fill="#1e2028" stroke="#2a2d38" stroke-width="1.5"/>
<text x="336" y="87" font-family="monospace" font-size="11" fill="#5c6070" text-anchor="middle">3</text>
<text x="336" y="108" font-family="monospace" font-size="9" fill="#5c6070" text-anchor="middle">Tabellen</text>
<rect x="350" y="81" width="90" height="2" fill="#2a2d38"/>
<circle cx="454" cy="82" r="14" fill="#1e2028" stroke="#2a2d38" stroke-width="1.5"/>
<text x="454" y="87" font-family="monospace" font-size="11" fill="#5c6070" text-anchor="middle">4</text>
<text x="454" y="108" font-family="monospace" font-size="9" fill="#5c6070" text-anchor="middle">Admin</text>
<rect x="468" y="81" width="90" height="2" fill="#2a2d38"/>
<circle cx="572" cy="82" r="14" fill="#1e2028" stroke="#2a2d38" stroke-width="1.5"/>
<text x="572" y="87" font-family="monospace" font-size="11" fill="#5c6070" text-anchor="middle">5</text>
<text x="572" y="108" font-family="monospace" font-size="9" fill="#5c6070" text-anchor="middle">Fertig</text>
<rect x="140" y="126" width="400" height="218" rx="12" fill="#16181f" stroke="#2a2d38" stroke-width="0.5"/>
<text x="160" y="154" font-family="monospace" font-size="15" font-weight="600" fill="#e8eaf0">Datenbankverbindung</text>
<text x="160" y="170" font-family="monospace" font-size="10" fill="#9296a8">Gib deine MySQL-Zugangsdaten ein</text>
<text x="160" y="192" font-family="monospace" font-size="9" fill="#9296a8">Datenbankserver (Host)</text>
<rect x="160" y="196" width="360" height="28" rx="6" fill="#1e2028" stroke="#2a2d38" stroke-width="0.5"/>
<text x="172" y="215" font-family="monospace" font-size="10" fill="#e8eaf0">localhost</text>
<text x="160" y="238" font-family="monospace" font-size="9" fill="#9296a8">Datenbankname</text>
<rect x="160" y="242" width="360" height="28" rx="6" fill="#1e2028" stroke="#2a2d38" stroke-width="0.5"/>
<text x="172" y="261" font-family="monospace" font-size="10" fill="#5c6070">projekt_timeline</text>
<rect x="160" y="279" width="170" height="28" rx="6" fill="#1e2028" stroke="#2a2d38" stroke-width="0.5"/>
<text x="172" y="298" font-family="monospace" font-size="10" fill="#e8eaf0">root</text>
<rect x="350" y="279" width="170" height="28" rx="6" fill="#1e2028" stroke="#2a2d38" stroke-width="0.5"/>
<text x="362" y="298" font-family="monospace" font-size="10" fill="#5c6070">............</text>
<rect x="160" y="316" width="140" height="28" rx="6" fill="none" stroke="#2a2d38" stroke-width="0.5"/>
<text x="230" y="335" font-family="monospace" font-size="10" fill="#9296a8" text-anchor="middle">Verbindung testen</text>
<rect x="440" y="316" width="80" height="28" rx="6" fill="#7c6af7"/>
<text x="480" y="335" font-family="monospace" font-size="10" fill="#fff" text-anchor="middle">Weiter</text>
</svg>
