<svg xmlns="http://www.w3.org/2000/svg" width="680" height="420" viewBox="0 0 680 420">
<rect width="680" height="420" rx="12" fill="#0e0f14"/>
<rect x="0" y="0" width="200" height="420" fill="#16181f"/>
<rect x="200" y="0" width="0.5" height="420" fill="#2a2d38"/>
<circle cx="24" cy="28" r="5" fill="#7c6af7"/>
<text x="34" y="33" font-family="monospace" font-size="13" font-weight="600" fill="#e8eaf0">Projekt-Timeline</text>
<text x="16" y="52" font-family="monospace" font-size="9" fill="#5c6070">PROJEKTE</text>
<rect x="10" y="60" width="180" height="32" rx="6" fill="#7c6af722"/>
<circle cx="24" cy="76" r="4" fill="#7c6af7"/>
<text x="34" y="80" font-family="monospace" font-size="11" fill="#e8eaf0">Sportclub Webseite</text>
<circle cx="24" cy="112" r="4" fill="#34d399"/>
<text x="34" y="116" font-family="monospace" font-size="11" fill="#9296a8">Mitglieder-App</text>
<circle cx="24" cy="136" r="4" fill="#f0b429"/>
<text x="34" y="140" font-family="monospace" font-size="11" fill="#9296a8">Trainingspläne</text>
<rect x="10" y="370" width="180" height="50" fill="#16181f"/>
<rect x="10" y="370" width="180" height="0.5" fill="#2a2d38"/>
<circle cx="26" cy="390" r="12" fill="#7c6af733"/>
<text x="26" y="394" font-family="monospace" font-size="11" fill="#7c6af7" text-anchor="middle">T</text>
<text x="44" y="387" font-family="monospace" font-size="11" fill="#e8eaf0">Thomas</text>
<text x="44" y="399" font-family="monospace" font-size="9" fill="#5c6070">Administrator</text>
<rect x="200" y="0" width="480" height="48" fill="#16181f"/>
<rect x="200" y="48" width="480" height="0.5" fill="#2a2d38"/>
<text x="216" y="22" font-family="monospace" font-size="15" font-weight="600" fill="#e8eaf0">Sportclub Webseite</text>
<rect x="216" y="30" width="80" height="14" rx="4" fill="#1e2028"/>
<text x="256" y="41" font-family="monospace" font-size="9" fill="#7c6af7" text-anchor="middle">+ Rubrik</text>
<rect x="200" y="48" width="480" height="32" fill="#16181f"/>
<rect x="218" y="56" width="70" height="24" rx="6" fill="#7c6af7"/>
<text x="253" y="73" font-family="monospace" font-size="10" fill="#fff" text-anchor="middle">Aktivitat</text>
<rect x="296" y="56" width="70" height="24" rx="6" fill="none"/>
<text x="331" y="73" font-family="monospace" font-size="10" fill="#9296a8" text-anchor="middle">Rubriken</text>
<rect x="374" y="56" width="70" height="24" rx="6" fill="none"/>
<text x="409" y="73" font-family="monospace" font-size="10" fill="#9296a8" text-anchor="middle">Timeline</text>
<rect x="210" y="92" width="460" height="80" rx="8" fill="#16181f" stroke="#2a2d38" stroke-width="0.5"/>
<rect x="210" y="92" width="4" height="80" rx="2" fill="#7c6af7"/>
<circle cx="228" cy="108" r="10" fill="#7c6af733"/>
<text x="228" y="113" font-family="monospace" font-size="11" fill="#7c6af7" text-anchor="middle">W</text>
<text x="244" y="108" font-family="monospace" font-size="12" font-weight="600" fill="#e8eaf0">Webseite Relaunch</text>
<text x="244" y="122" font-family="monospace" font-size="9" fill="#5c6070">Thomas</text>
<rect x="218" y="132" width="440" height="28" rx="4" fill="#1e2028"/>
<rect x="222" y="140" width="3" height="12" rx="1" fill="#f0b429"/>
<text x="232" y="151" font-family="monospace" font-size="10" fill="#e8eaf0">Homepage Mockup</text>
<rect x="310" y="136" width="44" height="14" rx="7" fill="#f0b42920"/>
<text x="332" y="147" font-family="monospace" font-size="8" fill="#f0b429" text-anchor="middle">Idee</text>
<text x="370" y="147" font-family="monospace" font-size="8" fill="#5c6070">15. Jan 2026</text>
<text x="410" y="147" font-family="monospace" font-size="8" fill="#9296a8">Thomas</text>
<text x="440" y="147" font-family="monospace" font-size="10" fill="#7c6af7">&#x1F4CE; 2</text>
<circle cx="498" cy="144" r="4" fill="#7c6af7"/>
<circle cx="510" cy="144" r="4" fill="#2a2d38"/>
<circle cx="522" cy="144" r="4" fill="#2a2d38"/>
<circle cx="534" cy="144" r="4" fill="#2a2d38"/>
<rect x="210" y="184" width="460" height="80" rx="8" fill="#16181f" stroke="#2a2d38" stroke-width="0.5"/>
<rect x="210" y="184" width="4" height="80" rx="2" fill="#34d399"/>
<circle cx="228" cy="200" r="10" fill="#34d39933"/>
<text x="228" y="205" font-family="monospace" font-size="11" fill="#34d399" text-anchor="middle">M</text>
<text x="244" y="200" font-family="monospace" font-size="12" font-weight="600" fill="#e8eaf0">Marketing</text>
<text x="244" y="214" font-family="monospace" font-size="9" fill="#5c6070">Sandra</text>
<rect x="218" y="224" width="440" height="28" rx="4" fill="#1e2028"/>
<rect x="222" y="232" width="3" height="12" rx="1" fill="#7c6af7"/>
<text x="232" y="243" font-family="monospace" font-size="10" fill="#e8eaf0">Social Media Kampagne</text>
<rect x="358" y="228" width="66" height="14" rx="7" fill="#7c6af720"/>
<text x="391" y="239" font-family="monospace" font-size="8" fill="#7c6af7" text-anchor="middle">Entwicklung</text>
<circle cx="510" cy="236" r="4" fill="#7c6af7"/>
<circle cx="522" cy="236" r="4" fill="#7c6af7"/>
<circle cx="534" cy="236" r="4" fill="#7c6af7"/>
<circle cx="546" cy="236" r="4" fill="#2a2d38"/>
<rect x="210" y="276" width="460" height="60" rx="8" fill="#16181f" stroke="#2a2d38" stroke-width="0.5"/>
<rect x="210" y="276" width="4" height="60" rx="2" fill="#f0b429"/>
<circle cx="228" cy="292" r="10" fill="#f0b42933"/>
<text x="228" y="297" font-family="monospace" font-size="11" fill="#f0b429" text-anchor="middle">T</text>
<text x="244" y="292" font-family="monospace" font-size="12" font-weight="600" fill="#e8eaf0">Technik</text>
</svg>
