<svg xmlns="http://www.w3.org/2000/svg" width="680" height="380" viewBox="0 0 680 380">
<rect width="680" height="380" rx="12" fill="#0e0f1488"/>
<rect x="80" y="20" width="520" height="340" rx="12" fill="#16181f" stroke="#2a2d38" stroke-width="0.5"/>
<rect x="80" y="20" width="520" height="48" rx="12" fill="#1e2028"/>
<rect x="80" y="44" width="520" height="24" fill="#1e2028"/>
<rect x="80" y="68" width="520" height="0.5" fill="#2a2d38"/>
<text x="104" y="50" font-family="monospace" font-size="14" font-weight="600" fill="#e8eaf0">Homepage Mockup</text>
<rect x="96" y="80" width="72" height="20" rx="10" fill="#f0b42920"/>
<text x="132" y="94" font-family="monospace" font-size="9" fill="#f0b429" text-anchor="middle">Idee</text>
<text x="180" y="94" font-family="monospace" font-size="9" fill="#5c6070">15. Jan 2026</text>
<text x="96" y="118" font-family="monospace" font-size="10" font-weight="500" fill="#9296a8">Timeline-Schritte</text>
<rect x="96" y="128" width="2" height="100" fill="#2a2d38"/>
<circle cx="97" cy="142" r="6" fill="#f0b429"/>
<text x="112" y="140" font-family="monospace" font-size="9" fill="#f0b429">Idee</text>
<text x="148" y="140" font-family="monospace" font-size="10" font-weight="500" fill="#e8eaf0">Startpunkt: Homepage Mockup</text>
<text x="112" y="154" font-family="monospace" font-size="8" fill="#5c6070">15. Jan 2026 - Thomas</text>
<circle cx="97" cy="178" r="6" fill="#7c6af7"/>
<text x="112" y="176" font-family="monospace" font-size="9" fill="#7c6af7">Start</text>
<text x="148" y="176" font-family="monospace" font-size="10" font-weight="500" fill="#e8eaf0">Wireframes fertig</text>
<text x="112" y="190" font-family="monospace" font-size="8" fill="#5c6070">22. Jan 2026 - Sandra</text>
<circle cx="97" cy="214" r="6" fill="#38bdf8"/>
<text x="112" y="212" font-family="monospace" font-size="9" fill="#38bdf8">Entw.</text>
<text x="148" y="212" font-family="monospace" font-size="10" font-weight="500" fill="#e8eaf0">Design-Review bestanden</text>
<text x="112" y="226" font-family="monospace" font-size="8" fill="#5c6070">01. Feb 2026 - Thomas</text>
<text x="96" y="252" font-family="monospace" font-size="9" font-weight="500" fill="#9296a8">Anhaenge</text>
<rect x="96" y="260" width="472" height="72" rx="8" fill="#1e2028" stroke="#2a2d38" stroke-width="0.5"/>
<rect x="96" y="260" width="472" height="26" rx="8" fill="#252830"/>
<rect x="96" y="272" width="472" height="14" fill="#252830"/>
<text x="112" y="278" font-family="monospace" font-size="10" font-weight="500" fill="#e8eaf0">config_rollen.php</text>
<rect x="268" y="264" width="28" height="14" rx="7" fill="#7c6af722"/>
<text x="282" y="275" font-family="monospace" font-size="8" fill="#7c6af7" text-anchor="middle">PHP</text>
<text x="310" y="275" font-family="monospace" font-size="8" fill="#9296a8">Thomas</text>
<text x="112" y="296" font-family="monospace" font-size="9" fill="#c678dd">return</text>
<text x="152" y="296" font-family="monospace" font-size="9" fill="#abb2bf">[</text>
<text x="112" y="310" font-family="monospace" font-size="9" fill="#e06c75">'admin'</text>
<text x="162" y="310" font-family="monospace" font-size="9" fill="#abb2bf">=&gt;</text>
<text x="184" y="310" font-family="monospace" font-size="9" fill="#abb2bf">[</text>
<text x="196" y="310" font-family="monospace" font-size="9" fill="#e06c75">'ceo'</text>
<text x="228" y="310" font-family="monospace" font-size="9" fill="#abb2bf">, 'cfo', 'coo' ...]</text>
<rect x="96" y="340" width="472" height="0.5" fill="#2a2d38"/>
<rect x="96" y="350" width="80" height="24" rx="6" fill="none" stroke="#2a2d38" stroke-width="0.5"/>
<text x="136" y="367" font-family="monospace" font-size="9" fill="#9296a8" text-anchor="middle">Schliessen</text>
<rect x="430" y="350" width="72" height="24" rx="6" fill="none" stroke="#2a2d38" stroke-width="0.5"/>
<text x="466" y="367" font-family="monospace" font-size="9" fill="#9296a8" text-anchor="middle">Anhang</text>
<rect x="510" y="350" width="60" height="24" rx="6" fill="#7c6af7"/>
<text x="540" y="367" font-family="monospace" font-size="9" fill="#fff" text-anchor="middle">+ Schritt</text>
</svg>
